 <svg  version="1.0" xmlns="http://www.w3.org/2000/svg"  width="300.000000pt" height="316.000000pt" viewBox="0 0 300.000000 316.000000"  preserveAspectRatio="xMidYMid meet">  <g transform="translate(0.000000,316.000000) scale(0.050000,-0.050000)" fill="#ffffff" stroke="none"> <path d="M3031 6122 c-6 -10 20 -38 59 -62 75 -46 90 -88 38 -108 -46 -18 -72 -15 -59 7 6 10 -10 42 -37 71 -27 28 -54 43 -60 33 -7 -11 -1 -24 13 -29 14 -5 -2 -7 -35 -6 -33 2 -73 11 -88 20 -18 12 -24 11 -15 -3 7 -11 -1 -26 -19 -33 -48 -18 -50 -16 -36 38 14 58 -29 66 -152 29 -39 -12 -143 -28 -233 -37 -94 -9 -198 -33 -245 -56 -44 -22 -76 -33 -71 -24 6 9 -35 -2 -90 -25 -57 -24 -95 -51 -88 -63 8 -13 -3 -16 -30 -9 -25 6 -56 -1 -71 -16 -15 -15 -32 -22 -38 -17 -18 19 -292 -131 -314 -172 -12 -23 -31 -36 -41 -29 -27 17 -241 -131 -226 -156 8 -12 4 -15 -9 -8 -12 8 -29 2 -38 -12 -9 -15 -61 -59 -116 -99 -149 -109 -294 -267 -400 -437 -11 -18 -40 -62 -64 -99 -24 -37 -39 -76 -32 -87 7 -10 4 -14 -7 -8 -34 22 -405 -737 -462 -945 -54 -195 -93 -1200 -47 -1200 9 0 21 -47 28 -105 21 -200 218 -757 282 -800 12 -8 15 -15 6 -15 -20 0 33 -100 82 -152 21 -22 46 -62 54 -87 8 -25 43 -78 78 -118 36 -40 89 -115 119 -167 29 -52 69 -103 88 -114 19 -10 33 -27 31 -36 -6 -29 348 -380 464 -460 67 -46 500 -268 536 -274 13 -3 60 -20 103 -39 433 -187 1301 -203 1870 -33 78 23 141 51 141 63 0 12 13 16 29 10 17 -6 43 2 59 18 16 16 48 29 71 29 22 0 41 9 41 20 0 11 13 20 29 20 55 0 432 202 418 225 -8 13 -4 15 11 6 55 -34 503 339 470 391 -8 14 -6 19 7 11 22 -14 160 156 215 267 20 39 79 125 132 192 89 112 287 491 305 580 4 21 18 65 31 98 129 324 181 873 133 1390 -27 281 -76 484 -134 549 -9 10 -17 33 -18 50 0 28 -83 208 -129 281 -10 17 -20 40 -22 51 -8 50 -112 248 -156 295 -26 28 -43 56 -37 62 6 6 -4 17 -22 24 -18 7 -28 20 -22 29 37 60 -643 706 -744 706 -14 0 -21 7 -15 16 10 16 -18 23 -43 12 -7 -3 -21 11 -31 30 -11 19 -32 35 -47 35 -15 0 -32 13 -37 28 -12 31 -258 159 -305 159 -16 0 -24 4 -19 10 13 12 -145 103 -180 103 -14 0 -36 13 -50 30 -13 16 -34 24 -45 17 -10 -7 -26 -2 -33 10 -17 28 -295 87 -447 95 -63 4 -134 17 -157 29 -31 16 -48 17 -64 1 -12 -12 -31 -22 -43 -22 -12 0 -7 9 9 20 18 12 20 20 6 20 -13 0 -29 -8 -35 -18z m-255 -159 c6 -40 3 -42 -45 -20 -56 26 -65 48 -26 64 42 16 65 2 71 -44z m-76 -85 c0 -31 -15 -38 -78 -38 -76 0 -136 -40 -114 -77 7 -10 -2 -24 -18 -30 -17 -7 -30 -26 -30 -42 0 -39 -57 -41 -72 -3 -6 15 -39 33 -73 40 -34 7 -79 28 -100 46 -41 38 -74 12 -75 -57 0 -18 -13 -38 -30 -44 -18 -7 -30 -37 -30 -72 0 -55 -6 -61 -61 -61 -93 0 -139 -33 -139 -99 0 -41 -12 -62 -41 -71 -25 -8 -45 -37 -53 -75 -12 -61 -13 -61 -46 -20 -35 43 -126 61 -183 37 -18 -8 -45 -13 -60 -11 -64 9 -78 -2 -67 -51 5 -27 15 -72 20 -100 9 -41 3 -50 -30 -50 -23 0 -40 -11 -38 -25 2 -14 -3 -41 -11 -61 -11 -23 -4 -49 20 -75 37 -41 89 -53 89 -20 0 10 40 25 90 32 l90 14 -50 59 c-79 94 -69 176 22 176 90 0 188 -90 188 -173 l0 -57 -52 73 c-49 69 -54 71 -89 41 -34 -28 -35 -36 -8 -65 16 -17 29 -39 29 -48 0 -9 16 -29 35 -43 31 -23 22 -27 -68 -27 -138 -1 -205 -52 -176 -134 17 -47 31 -57 87 -57 74 0 114 -79 52 -103 -19 -7 -30 -37 -30 -79 0 -40 -10 -68 -24 -68 -19 0 -19 -5 0 -24 33 -33 30 -66 -3 -38 -32 26 -21 215 15 260 19 24 15 25 -23 5 -111 -59 -113 -174 -5 -291 86 -94 98 -118 48 -98 -28 10 -29 6 -9 -31 12 -24 18 -52 12 -62 -7 -10 8 -32 32 -49 63 -44 36 -57 -55 -27 -87 28 -131 110 -45 85 34 -10 27 0 -25 37 -67 47 -138 171 -138 241 0 15 -20 42 -45 60 l-45 32 60 -5 c55 -5 61 -12 71 -95 10 -87 53 -180 83 -180 36 0 34 44 -4 84 -41 44 -53 78 -64 174 -13 105 -176 89 -176 -17 0 -67 -5 -70 -61 -40 -91 48 -31 218 77 220 47 2 49 4 14 17 -22 9 -40 28 -40 43 0 16 -21 28 -50 27 -35 0 -48 -10 -44 -32 3 -18 -4 -39 -15 -46 -12 -7 -21 -40 -21 -74 0 -51 -5 -57 -29 -37 -16 14 -39 18 -51 11 -12 -7 -35 -3 -51 11 -23 19 -36 18 -60 -1 -23 -20 -42 -21 -81 -3 -82 37 -94 30 -79 -52 7 -41 13 -97 13 -125 1 -27 15 -65 32 -84 16 -18 24 -44 16 -56 -8 -12 3 -35 23 -51 20 -15 27 -28 16 -28 -108 -4 -91 -58 37 -121 117 -57 132 -71 122 -111 -6 -25 -1 -64 11 -87 18 -35 17 -39 -10 -29 -18 7 -50 52 -70 100 -57 133 -239 169 -239 49 0 -55 41 -75 70 -35 39 53 97 44 65 -10 -20 -34 -20 -44 0 -51 43 -16 27 -63 -30 -90 -49 -24 -55 -38 -55 -121 l0 -95 -75 0 c-64 0 -75 -6 -75 -45 0 -29 -22 -57 -60 -79 -73 -42 -75 -63 -9 -93 39 -18 48 -33 39 -63 -10 -33 -4 -40 39 -40 49 0 51 -4 39 -80 -18 -113 107 -213 178 -142 12 12 52 22 89 22 37 0 87 10 111 23 39 21 41 20 17 -9 -14 -18 -21 -41 -15 -51 22 -35 -12 -83 -58 -83 -25 0 -51 -13 -57 -30 -17 -43 -78 -38 -69 5 4 23 31 39 76 46 l70 10 -55 15 c-78 21 -135 -14 -135 -84 0 -45 -13 -63 -60 -82 -34 -14 -66 -33 -72 -43 -16 -27 131 -82 183 -68 35 8 50 1 59 -30 8 -23 33 -49 57 -58 38 -14 43 -31 43 -138 0 -88 9 -131 34 -156 32 -32 34 -26 22 110 -10 124 -7 143 21 143 24 0 33 -18 33 -71 0 -78 39 -167 92 -210 32 -27 34 -25 20 21 -68 231 3 381 208 442 68 21 76 31 86 103 7 53 32 102 74 145 56 57 62 75 56 162 l-7 98 -51 -108 c-39 -83 -54 -100 -65 -74 -24 65 -13 108 45 170 63 68 36 86 -33 22 -25 -23 -48 -31 -55 -20 -7 11 -2 20 10 20 12 0 17 9 10 20 -20 33 90 64 151 43 42 -15 62 -12 89 14 32 31 33 29 20 -32 -19 -94 21 -192 113 -275 90 -82 91 -109 1 -62 -80 41 -140 120 -156 204 -18 98 -56 86 -42 -14 13 -97 54 -147 174 -209 71 -37 80 -47 44 -48 -54 -1 -146 43 -183 88 -32 38 -68 15 -112 -72 -41 -78 -36 -152 11 -182 57 -36 49 -56 -17 -43 -35 7 -82 -1 -120 -21 -35 -17 -63 -27 -63 -20 0 6 -11 4 -25 -5 -14 -8 -31 -16 -38 -16 -8 0 -21 -8 -30 -18 -10 -11 -7 -12 8 -4 16 9 21 4 13 -17 -7 -17 -20 -26 -30 -20 -99 61 -43 -266 62 -361 78 -71 145 -204 123 -244 -17 -30 -25 -23 -53 49 -55 137 -241 215 -378 157 -57 -24 -191 -154 -193 -188 0 -8 -14 -59 -30 -114 -31 -103 -29 -50 2 110 13 65 12 68 -19 39 -83 -79 -63 -285 39 -398 100 -111 57 -192 -95 -177 -81 7 -109 91 -37 110 56 15 41 54 -24 62 -129 16 -153 -162 -37 -278 140 -140 303 -103 396 90 l49 102 -13 -94 c-22 -170 76 -273 214 -221 66 25 73 6 16 -45 -42 -38 -54 -90 -20 -90 27 0 124 157 111 179 -6 10 3 32 21 50 47 47 21 59 -49 22 -171 -88 -284 39 -183 204 40 65 67 73 160 47 l50 -15 -50 -16 c-74 -23 -120 -71 -120 -125 0 -61 58 -85 86 -35 64 115 157 152 289 116 61 -16 58 -28 -35 -122 -201 -206 -21 -511 269 -456 115 21 104 51 -19 51 -265 0 -341 297 -107 422 63 33 69 3 9 -44 -67 -53 -55 -71 21 -33 34 17 78 23 107 15 49 -13 48 -14 -15 -28 -218 -50 -245 -312 -33 -312 83 0 101 28 37 57 -103 47 -38 203 85 203 50 0 146 -39 146 -60 0 -7 -27 -9 -60 -4 -82 12 -160 -11 -160 -47 0 -24 8 -26 39 -10 21 12 73 20 115 18 43 -1 57 -6 32 -11 -23 -5 -54 -21 -67 -37 -30 -36 -21 -36 66 0 67 28 79 26 228 -30 144 -55 149 -60 67 -50 -83 10 -87 9 -51 -19 117 -91 511 135 511 292 0 21 10 38 21 38 12 0 16 9 10 19 -7 11 -26 14 -42 8 -16 -6 -43 -1 -58 12 -16 14 -38 19 -48 13 -10 -6 -30 2 -44 19 -14 17 -37 26 -51 21 -14 -5 -36 3 -49 19 -13 16 -41 29 -61 29 -21 0 -38 9 -38 21 0 11 -15 26 -34 33 -51 20 -106 72 -106 100 0 15 -11 26 -25 27 -30 1 -104 113 -122 185 -24 94 22 76 85 -35 57 -102 200 -265 222 -255 6 2 28 -11 50 -30 22 -19 40 -31 40 -27 0 13 240 -69 247 -85 4 -8 17 -8 30 2 13 10 87 24 166 30 106 8 165 25 225 63 45 28 90 51 101 51 46 0 180 162 237 285 19 41 43 71 54 68 32 -11 11 -119 -31 -164 -22 -23 -39 -48 -39 -56 0 -27 -212 -213 -243 -213 -11 0 -34 -14 -51 -31 -17 -17 -43 -27 -57 -21 -14 5 -37 -3 -50 -19 -13 -16 -32 -23 -42 -17 -10 6 -32 1 -48 -12 -15 -14 -60 -21 -99 -16 -83 9 -89 2 -20 -24 28 -10 50 -33 50 -50 0 -160 420 -378 526 -272 14 14 -3 17 -58 8 -102 -15 -86 -2 70 60 118 48 134 50 206 25 64 -22 74 -22 55 0 -12 15 -42 30 -65 33 l-44 7 42 12 c23 6 77 0 119 -15 88 -30 107 -23 68 24 -21 24 -51 30 -123 23 -110 -10 -124 9 -34 46 155 64 312 -73 193 -169 -72 -57 -69 -72 13 -72 214 0 215 233 2 308 -62 21 -72 31 -46 42 19 7 63 -1 98 -18 80 -40 99 -26 36 26 -26 21 -41 46 -31 55 9 9 51 -21 95 -67 162 -175 80 -365 -159 -367 -104 0 -110 -3 -74 -30 243 -183 543 236 317 444 -93 84 -79 127 41 127 95 0 181 -51 203 -121 17 -52 84 -50 101 3 16 50 -51 129 -125 147 -64 16 -43 39 40 44 109 5 188 -108 150 -217 -31 -87 -95 -93 -260 -26 -26 10 -16 -21 39 -128 40 -78 80 -142 89 -142 28 0 18 42 -25 102 l-42 58 53 -20 c138 -53 224 10 234 170 l6 100 43 -93 c92 -199 339 -190 431 16 56 128 -21 243 -134 200 -43 -17 -37 -53 8 -53 59 0 72 -64 20 -105 -46 -38 -93 -33 -173 18 -57 35 -57 76 -2 115 113 79 155 280 86 413 -40 77 -56 75 -38 -6 13 -61 10 -59 -54 35 -141 209 -473 207 -526 -4 -8 -31 -25 -62 -38 -70 -13 -9 0 -16 32 -16 44 0 55 -9 55 -45 1 -63 22 -136 37 -127 7 5 13 -13 13 -39 0 -43 -13 -49 -135 -70 -74 -12 -130 -31 -124 -41 6 -9 -1 -13 -17 -7 -15 6 -71 -25 -125 -69 -111 -93 -148 -84 -147 35 2 133 -26 302 -54 325 -37 31 -35 87 4 120 18 15 59 73 91 130 32 56 75 118 96 137 42 38 43 37 71 -105 19 -93 45 -73 112 84 68 160 72 218 18 272 -46 46 -91 35 -108 -26 -12 -43 -13 -43 -42 -5 -42 54 3 119 87 127 190 19 200 -237 23 -559 -13 -23 -7 -43 21 -68 36 -33 39 -32 60 23 12 32 56 94 99 138 109 112 189 330 120 330 -11 0 -17 16 -15 35 3 19 -4 38 -15 41 -11 4 -42 26 -68 50 -27 24 -41 32 -32 16 8 -15 -12 -7 -46 18 -46 34 -77 42 -123 33 -35 -7 -61 -4 -61 8 0 10 9 19 19 19 73 0 69 153 -7 247 l-46 56 -55 -50 c-51 -48 -162 -88 -183 -67 -6 5 31 29 81 54 91 44 117 74 166 190 25 60 25 60 16 -21 -9 -74 -4 -87 53 -129 l63 -46 41 50 c23 28 58 70 77 93 21 27 58 43 95 43 38 0 60 10 60 28 0 16 9 32 19 35 32 12 39 153 8 165 -15 6 -27 25 -27 41 0 17 -9 31 -20 31 -11 0 -20 19 -20 42 0 36 -5 39 -31 17 -25 -20 -35 -19 -57 11 -18 25 -30 29 -40 13 -8 -13 -35 -18 -63 -11 -40 10 -49 5 -49 -28 0 -22 -16 -59 -35 -83 -34 -42 -35 -41 -35 58 0 186 332 193 431 9 14 -26 42 -53 62 -59 41 -13 52 -52 13 -44 -33 7 -58 -189 -28 -210 13 -8 6 -15 -18 -15 -22 0 -67 -18 -99 -39 -43 -29 -66 -33 -85 -18 -35 30 -33 1 3 -34 34 -35 204 -39 216 -5 4 13 22 17 42 10 87 -34 -50 -101 -150 -74 -116 30 -187 32 -187 4 0 -35 -47 -61 -89 -50 -75 19 -4 -165 74 -193 171 -62 265 -213 225 -362 -13 -46 -17 -88 -11 -95 33 -33 123 182 100 242 -16 42 21 60 51 24 24 -29 20 -121 -11 -225 -24 -79 25 -49 59 37 25 61 28 98 14 148 -20 74 -13 90 41 90 22 0 41 20 49 51 11 43 21 49 66 39 54 -11 202 37 202 66 0 9 -29 24 -65 35 -54 16 -66 30 -71 85 -8 78 -84 120 -153 86 -39 -18 -38 -19 9 -21 77 -3 116 -33 83 -65 -21 -21 -30 -20 -52 9 -14 19 -39 35 -56 35 -16 0 -40 12 -52 26 -26 32 -7 119 22 101 12 -7 51 -12 87 -11 37 2 72 -6 78 -17 50 -80 197 38 180 144 -12 69 -9 77 28 77 29 0 42 13 42 42 0 23 20 59 45 80 48 40 13 98 -60 98 -17 0 -25 17 -21 45 5 39 -4 46 -69 51 -69 6 -74 11 -63 55 20 80 -7 142 -72 169 -57 24 -59 28 -32 70 26 39 25 48 -4 77 -30 31 -29 33 11 33 24 0 51 -15 61 -33 23 -40 64 -18 64 35 0 109 -177 81 -222 -36 -11 -29 -47 -83 -80 -121 -67 -77 -65 -106 5 -57 151 105 296 -71 166 -201 -63 -63 -93 -45 -32 19 82 88 14 210 -91 163 -31 -14 -30 -17 14 -24 62 -10 89 -35 70 -64 -10 -17 -21 -17 -42 1 -23 19 -27 18 -17 -7 19 -49 -34 -66 -69 -22 -18 21 -50 40 -72 41 -139 10 -249 75 -250 147 0 38 -14 90 -31 115 -39 55 -79 60 -50 5 12 -21 22 -59 22 -85 2 -43 3 -44 19 -6 15 35 17 36 19 4 2 -54 -56 -154 -89 -154 -22 0 -26 21 -16 100 15 129 -24 180 -138 180 -47 0 -73 8 -66 20 7 11 37 20 66 20 83 1 151 44 188 121 19 38 35 57 35 43 1 -14 -13 -53 -30 -87 -39 -74 -32 -82 85 -96 51 -6 97 -22 101 -36 6 -19 -4 -21 -43 -6 -60 23 -61 19 -27 -78 31 -87 115 -163 115 -103 0 10 27 47 60 82 55 59 60 61 60 21 0 -24 9 -38 20 -31 11 7 20 41 20 76 0 64 97 154 166 154 66 0 93 70 33 86 -35 9 -38 18 -20 52 11 23 31 61 43 84 30 59 46 298 20 298 -11 0 -44 -11 -72 -24 -42 -19 -56 -18 -69 3 -11 16 -27 20 -44 9 -49 -31 -137 -21 -137 15 0 19 -25 52 -55 74 -48 36 -52 45 -30 82 21 34 20 41 -3 41 -16 0 -35 -27 -42 -60 -9 -40 -25 -60 -50 -60 -21 0 -42 -7 -47 -16 -6 -9 19 -12 55 -8 138 16 177 -169 49 -238 -32 -17 -35 -12 -25 39 9 44 1 68 -34 100 -52 49 -11 62 66 21 32 -17 39 -16 32 5 -16 47 -136 46 -169 -2 -16 -22 -42 -41 -59 -41 -20 0 -25 -14 -17 -48 13 -51 -27 -148 -79 -191 -31 -25 -26 -61 8 -61 10 0 42 34 71 75 42 60 50 65 39 25 -8 -27 -42 -79 -76 -115 -34 -36 -51 -65 -38 -65 39 0 27 -57 -17 -81 -23 -12 -65 -19 -95 -15 l-54 6 70 45 c49 31 59 44 34 45 -28 0 -33 10 -24 40 8 24 4 40 -10 40 -13 0 8 37 46 81 105 123 110 235 11 296 -35 22 -37 21 -21 -11 41 -79 42 -204 2 -251 -38 -45 -38 -45 -27 78 8 100 4 124 -22 135 -62 23 -27 103 43 97 49 -3 67 6 84 45 44 96 -15 150 -165 150 -112 0 -117 29 -21 106 85 68 91 174 6 122 -16 -10 -11 -20 15 -32 31 -13 28 -15 -15 -9 -57 7 -96 -23 -126 -97 -14 -35 -17 -36 -24 -6 -23 94 92 216 204 216 69 0 77 -29 39 -131 -19 -49 -31 -92 -27 -95 88 -57 166 -74 210 -44 49 32 63 79 29 99 -11 7 -14 25 -8 42 8 19 -2 29 -29 29 -35 0 -39 13 -37 105 l3 105 -63 -6 c-35 -4 -68 2 -75 12 -15 25 -114 6 -155 -30 -28 -25 -34 -22 -45 22 -6 27 -28 54 -48 61 -19 6 -37 30 -39 53 -5 70 -64 118 -144 118 -72 0 -73 1 -65 70 7 54 1 70 -24 70 -18 0 -32 16 -32 38 0 61 -54 94 -95 57 -19 -17 -57 -37 -85 -45 -27 -8 -67 -29 -87 -47 -43 -38 -93 9 -93 89 0 51 -34 68 -139 68 -70 0 -75 4 -66 50 11 54 249 78 298 29 12 -12 82 -30 156 -40 88 -13 198 -50 318 -107 100 -49 219 -103 263 -121 44 -18 98 -51 122 -73 23 -21 79 -59 124 -84 592 -317 1162 -1130 1296 -1844 331 -1774 -924 -3341 -2742 -3423 -669 -30 -1436 217 -1850 597 -250 229 -364 346 -387 398 -13 29 -52 76 -87 106 -193 163 -443 759 -528 1261 -11 65 -25 127 -32 138 -73 117 12 970 115 1158 10 19 19 46 19 60 0 23 82 195 173 365 51 94 89 169 160 313 35 73 74 139 85 146 11 6 60 72 110 146 49 74 133 173 186 219 184 162 350 296 413 334 35 20 100 62 144 93 90 62 262 143 427 201 59 21 118 46 130 56 30 24 191 61 372 85 82 11 163 28 180 37 37 21 80 -12 80 -62z m260 61 c0 -12 26 -55 58 -95 96 -124 119 -315 51 -426 -6 -10 -3 -18 7 -18 18 0 83 135 112 233 18 59 68 74 123 38 53 -34 84 -144 51 -177 -16 -16 -22 -6 -22 38 0 66 -31 108 -79 107 -26 0 -25 -4 4 -21 56 -32 44 -80 -19 -74 -39 4 -57 -4 -62 -29 -5 -24 6 -35 33 -35 22 0 60 -27 83 -60 23 -33 54 -60 69 -60 70 0 351 -156 460 -255 39 -37 71 -58 71 -48 0 23 -141 151 -200 183 -24 13 -39 28 -34 33 45 44 287 -190 324 -313 9 -27 46 -93 82 -146 72 -104 99 -202 81 -292 -6 -31 -3 -64 6 -74 65 -68 23 -246 -123 -525 l-77 -146 41 -58 c58 -81 86 -171 72 -229 -19 -75 -56 -61 -43 15 8 43 -2 92 -28 145 -33 67 -37 71 -25 20 46 -193 -22 -310 -178 -310 -49 0 -75 8 -68 20 7 11 36 20 65 20 86 0 145 72 145 177 l0 90 -57 -54 c-60 -57 -203 -96 -203 -56 0 13 14 23 31 23 93 0 231 148 194 208 -6 10 -10 50 -9 89 2 38 -7 82 -19 96 -12 15 -16 41 -9 58 6 17 4 27 -5 21 -9 -6 -63 33 -119 86 -311 292 -759 362 -805 126 -14 -70 -15 -71 -17 -13 -9 251 -501 183 -808 -113 -56 -54 -109 -98 -119 -98 -10 0 -12 -8 -6 -19 7 -10 -2 -26 -18 -35 -19 -11 -25 -33 -18 -62 11 -42 16 -39 90 45 87 99 204 179 242 166 14 -5 -2 -23 -36 -40 -317 -165 -392 -465 -126 -508 87 -14 84 -47 -3 -47 -37 0 -85 23 -128 61 -66 58 -69 59 -82 19 -36 -113 44 -220 166 -220 39 0 61 -8 54 -20 -7 -11 -46 -20 -87 -20 -133 0 -200 101 -176 266 l13 84 -32 -58 c-21 -38 -29 -85 -22 -135 11 -86 -18 -106 -38 -25 -16 62 20 193 62 228 38 32 38 79 1 133 -116 165 -223 525 -173 578 10 10 21 79 26 151 7 115 18 148 86 246 l78 114 -24 114 c-14 63 -29 133 -36 156 -8 30 7 64 50 113 34 39 62 84 62 101 0 62 131 74 201 17 58 -47 36 -85 -42 -70 -46 9 -59 5 -59 -20 0 -38 -59 -45 -62 -8 -2 14 -8 -1 -15 -33 -7 -32 -24 -62 -38 -67 -16 -5 -21 4 -13 28 11 35 10 35 -18 2 -30 -36 -26 -188 5 -222 9 -9 36 12 60 45 52 73 212 188 246 177 13 -4 -18 -33 -70 -63 -82 -48 -175 -144 -175 -180 0 -6 40 29 89 79 50 49 101 89 114 89 13 0 39 14 58 31 20 18 101 57 182 88 106 41 154 71 173 109 17 34 43 52 73 52 26 0 51 11 56 25 5 15 19 4 35 -25 14 -28 60 -91 102 -142 70 -84 90 -178 38 -178 -25 0 -38 80 -13 81 13 0 -3 23 -35 51 -64 57 -244 54 -278 -4 -9 -16 -29 -28 -45 -28 -16 0 -29 -8 -29 -18 0 -30 47 -37 86 -14 27 17 40 15 54 -8 38 -59 20 -75 -95 -86 -63 -6 -133 -14 -155 -18 -29 -4 -40 5 -40 34 0 41 12 44 75 19 28 -11 35 -3 35 39 0 60 4 58 -76 30 -35 -12 -61 -31 -58 -42 2 -11 -36 -33 -86 -48 -145 -45 -220 -135 -372 -444 -82 -168 -84 -493 -4 -690 73 -180 82 -187 74 -64 -10 154 22 368 57 388 33 18 57 142 28 142 -24 0 14 195 52 269 117 229 411 412 567 354 38 -14 31 -19 -50 -30 -267 -36 -489 -253 -545 -533 -12 -58 -9 -65 21 -53 20 7 53 13 74 13 24 0 47 21 60 55 46 123 255 285 367 285 36 0 51 11 51 37 0 241 546 277 676 45 33 -58 60 -78 133 -98 110 -29 259 -159 294 -255 19 -54 37 -68 86 -73 49 -5 65 -19 82 -69 11 -35 36 -81 55 -103 28 -30 37 -83 43 -233 4 -107 12 -199 17 -204 29 -28 47 116 30 233 -11 72 -22 148 -25 170 -3 22 -8 40 -11 40 -6 0 -17 57 -29 162 -5 45 -24 124 -42 177 -34 102 -30 123 22 103 21 -8 30 -27 23 -51 -5 -23 2 -43 20 -50 18 -7 24 -25 16 -50 -8 -27 1 -47 29 -65 48 -30 53 -56 11 -56 -16 0 -30 -9 -30 -21 0 -11 14 -25 30 -32 17 -6 30 -20 30 -30 0 -11 -8 -14 -19 -8 -10 6 -24 3 -30 -8 -7 -10 7 -29 30 -42 40 -21 40 -25 9 -59 -18 -20 -24 -41 -14 -47 10 -7 15 -59 10 -117 -10 -130 19 -95 52 63 69 324 -138 834 -378 934 -38 16 -104 52 -146 81 -54 37 -98 52 -155 49 -57 -2 -79 5 -79 26 0 47 -170 63 -253 24 -57 -27 -66 -41 -56 -81 7 -26 3 -53 -7 -60 -49 -30 -44 90 5 143 53 57 53 94 -2 181 -58 91 -128 73 -178 -44 -48 -115 -110 123 -65 249 55 152 196 323 196 238z m-311 -270 c58 -59 40 -119 -39 -123 -39 -2 -70 3 -70 10 1 24 29 58 60 70 17 8 9 11 -20 8 -42 -3 -51 -15 -56 -79 -7 -85 -44 -83 -44 2 0 106 105 175 169 112z m-309 -74 c93 -64 135 -130 93 -147 -21 -8 -50 10 -84 50 -29 34 -61 62 -71 62 -28 0 -47 -62 -24 -77 11 -7 26 -39 34 -71 12 -51 10 -56 -15 -34 -25 20 -28 18 -19 -17 16 -60 -8 -50 -43 18 -85 163 0 304 129 216z m1309 -14 c43 -81 39 -146 -12 -210 -51 -65 -80 -37 -62 58 10 53 13 55 27 20 12 -31 15 -27 17 25 2 109 -123 87 -151 -26 -15 -57 -68 -64 -68 -10 0 67 23 102 97 153 93 63 115 62 152 -10z m279 -151 c12 -22 42 -65 67 -96 51 -65 57 -155 15 -244 -27 -57 -28 -54 -17 62 8 81 4 128 -11 137 -14 8 -22 -4 -23 -33 0 -45 -1 -45 -31 -6 -16 22 -25 57 -20 78 12 45 -20 112 -53 112 -17 0 -17 -6 1 -24 29 -29 32 -96 4 -96 -11 0 -20 15 -20 32 0 24 -13 30 -52 23 -66 -13 -90 39 -36 79 52 38 149 25 176 -24z m-958 -29 c19 -59 -25 -130 -61 -100 -30 25 -39 102 -16 126 26 26 64 13 77 -26z m-211 -152 c-17 -79 -30 -85 -51 -20 -19 62 -18 66 17 53 21 -8 36 -23 34 -33z m441 33 c0 -9 -13 -28 -30 -42 -16 -14 -30 -40 -31 -57 0 -23 -9 -17 -29 17 -25 44 -24 53 5 75 38 29 85 33 85 7z m63 -56 c30 19 42 18 55 -3 13 -21 26 -22 60 -4 34 18 45 17 54 -8 7 -17 34 -31 62 -31 36 0 47 -9 42 -35 -5 -22 -22 -33 -47 -29 -21 4 -88 12 -148 18 -109 12 -161 40 -161 89 0 18 6 19 23 2 16 -16 32 -16 60 1z m262 -181 c192 -103 329 -292 364 -500 18 -105 -19 -117 -38 -12 -53 282 -286 505 -561 535 -106 12 -106 12 -60 32 59 27 188 2 295 -55z m-1243 14 c-31 -26 -55 -34 -67 -22 -30 30 2 63 61 62 l54 0 -48 -40z m1358 12 c0 -19 19 -27 55 -25 41 3 54 -5 52 -30 -1 -22 18 -38 55 -47 32 -6 58 -20 58 -31 0 -10 -10 -16 -22 -13 -13 3 -27 -6 -32 -20 -5 -14 5 -25 22 -25 17 0 40 -18 52 -40 38 -71 -51 -49 -99 25 -23 36 -62 80 -86 99 -25 19 -72 57 -105 84 l-60 51 55 0 c35 1 55 -10 55 -28z m-1463 -29 c31 -20 -17 -110 -75 -141 -60 -32 -165 -270 -173 -391 -3 -44 -6 -87 -7 -95 -1 -8 -17 -15 -34 -15 -24 0 -30 13 -23 50 6 34 0 50 -18 50 -39 0 -33 27 12 59 27 20 33 36 20 52 -13 16 -9 32 11 49 17 14 26 41 20 61 -8 24 1 40 29 49 24 7 41 30 41 53 0 23 16 45 39 51 25 6 34 21 26 41 -6 18 4 42 24 57 21 15 31 39 24 57 -13 34 38 42 84 13z m-542 -204 c-19 -11 -35 -33 -35 -49 0 -16 -9 -29 -20 -29 -22 0 -27 66 -7 87 8 7 32 13 55 12 38 0 39 -2 7 -21z m2661 -33 c9 -59 -17 -56 -63 7 -37 51 -37 51 10 45 31 -5 49 -22 53 -52z m244 -265 c0 -11 -8 -20 -18 -20 -10 0 -33 -5 -50 -12 -21 -8 -32 -1 -32 20 0 21 17 32 50 32 28 0 50 -9 50 -20z m-3415 -103 c224 -71 318 -241 156 -282 -150 -39 -287 45 -322 198 -35 148 -36 148 166 84z m3784 -32 c-32 -183 -153 -279 -320 -254 -209 32 -104 209 181 305 127 42 153 33 139 -51z m-2989 -45 c0 -11 -9 -20 -20 -20 -11 0 -20 -26 -20 -58 0 -33 -13 -63 -30 -69 -18 -7 -30 0 -30 18 0 16 9 29 20 29 37 0 20 37 -24 51 -42 14 -42 15 -6 42 44 32 110 36 110 7z m-500 -148 c0 -58 83 -132 162 -145 102 -16 121 -47 29 -47 -122 0 -177 -88 -131 -209 19 -52 9 -61 -48 -39 -20 8 -28 28 -23 55 5 24 14 79 21 123 l13 80 -46 -45 c-34 -33 -45 -65 -42 -125 3 -74 -1 -80 -49 -80 -56 0 -256 -87 -276 -120 -24 -39 -75 -22 -64 21 9 34 6 37 -18 17 -34 -28 -58 -12 -42 30 7 16 37 33 68 37 l56 7 -56 16 c-120 36 -163 -79 -68 -183 22 -25 31 -45 19 -45 -28 0 -125 115 -125 149 0 101 137 160 231 99 l49 -33 1 98 c0 83 4 91 23 57 36 -64 123 -138 132 -113 4 13 20 23 36 23 15 0 28 16 28 35 0 19 6 57 13 83 12 44 9 47 -42 34 -40 -10 -53 -7 -46 12 4 14 48 31 97 37 133 15 144 28 98 115 -44 81 -51 113 -20 94 11 -7 20 -24 20 -38z m1170 -12 c7 -12 23 -15 36 -9 13 7 -7 -17 -46 -52 -38 -36 -133 -124 -210 -197 -196 -185 -288 -163 -113 27 43 46 81 95 85 108 5 13 61 45 125 71 64 26 105 52 90 58 -17 7 -19 11 -3 12 13 1 29 -7 36 -18z m734 3 c-17 -11 0 -25 54 -42 114 -38 352 -342 267 -341 -29 0 -116 71 -252 205 -75 74 -145 135 -155 135 -38 0 -16 38 27 46 76 14 86 14 59 -3z m-2284 -83 c0 -46 -16 -49 -65 -12 -48 36 -44 52 15 52 37 0 50 -11 50 -40z m1951 -101 c19 -21 75 -43 126 -51 70 -11 106 -29 143 -75 28 -34 111 -121 185 -195 156 -154 165 -174 56 -118 -150 76 -394 31 -472 -89 -48 -73 -26 -82 60 -23 123 84 313 107 476 60 144 -43 -93 -748 -292 -869 -106 -65 -293 -21 -245 58 7 11 2 23 -11 27 -41 14 3 56 57 56 43 0 47 -5 26 -30 -14 -17 -21 -36 -15 -42 6 -5 30 15 55 46 50 64 45 165 -12 228 -39 43 -112 52 -97 13 17 -44 -96 -74 -158 -41 -29 15 -53 36 -53 47 0 10 -9 19 -20 19 -42 0 -17 -59 44 -107 76 -60 67 -77 -43 -80 -116 -3 -89 -40 45 -61 78 -13 114 -28 114 -48 0 -20 -17 -26 -60 -20 -33 5 -60 3 -60 -3 0 -29 51 -61 97 -61 28 0 66 -15 86 -32 19 -18 65 -39 101 -48 l66 -15 -98 -45 c-173 -79 -412 8 -595 217 -153 174 -312 732 -222 781 118 63 357 38 492 -50 88 -59 113 -51 66 21 -78 118 -337 168 -482 93 -96 -51 -116 -40 -40 22 67 55 196 185 279 281 47 54 81 72 154 83 102 15 174 80 178 160 1 33 5 30 19 -15 9 -32 32 -74 50 -94z m1909 122 c0 -31 -75 -65 -90 -41 -7 11 -7 29 0 40 16 26 90 26 90 1z m-1199 -66 c47 -36 108 -96 137 -134 48 -64 42 -61 -69 30 -66 54 -142 114 -170 133 -37 26 -41 34 -16 35 19 1 72 -28 118 -64z m-2458 -22 c-55 -56 -63 -77 -51 -125 13 -52 11 -55 -19 -31 -76 63 -8 222 96 223 33 0 29 -10 -26 -67z m3407 49 c22 -9 40 -24 41 -34 1 -10 8 -38 16 -62 9 -27 5 -63 -11 -90 -24 -44 -26 -43 -36 33 -8 62 -25 90 -78 125 -72 49 -30 66 68 28z m-3078 -192 c-62 -57 -72 -60 -72 -24 0 38 42 74 87 74 34 0 33 -6 -15 -50z m2757 18 c17 -17 26 -41 18 -52 -8 -13 -19 -9 -31 11 -10 18 -36 33 -57 33 -21 0 -39 9 -39 20 0 31 74 23 109 -12z m-2208 -248 c44 -24 135 -20 209 10 27 11 33 9 20 -4 -113 -115 -333 -41 -329 110 0 19 13 6 28 -29 15 -35 48 -74 72 -87z m1690 28 c-59 -89 -216 -103 -299 -27 -10 10 14 7 54 -5 104 -32 196 -2 234 77 18 39 33 52 37 34 3 -16 -8 -51 -26 -79z m-2179 42 c-25 -19 -32 -40 -23 -64 14 -33 17 -32 33 9 23 62 74 78 115 37 38 -38 15 -64 -78 -84 -52 -12 -67 -107 -30 -193 10 -22 7 -35 -9 -35 -13 0 -28 18 -34 40 -6 22 -20 40 -31 40 -11 0 -14 22 -7 50 14 56 7 60 -52 28 -31 -17 -45 -16 -58 5 -13 21 -22 19 -44 -11 -15 -21 -38 -32 -51 -24 -14 9 -23 2 -23 -17 0 -17 -12 -31 -28 -31 -51 0 -81 -220 -32 -237 11 -3 20 -19 20 -35 0 -17 21 -28 56 -28 48 0 204 -143 204 -187 0 -16 -99 -1 -115 17 -8 9 -1 9 15 -1 26 -14 26 -12 3 17 -27 33 -74 49 -56 19 13 -22 -272 -29 -305 -7 -15 9 -21 28 -13 40 17 27 71 29 71 2 0 -33 179 -24 214 11 17 17 25 37 17 44 -7 8 -22 1 -32 -16 -13 -20 -24 -22 -34 -7 -16 24 -108 78 -125 74 -5 -1 -12 26 -15 61 -2 34 -13 66 -25 70 -11 3 -20 30 -20 60 1 41 5 47 20 23 15 -23 19 -17 20 28 0 125 186 232 356 205 58 -9 66 -7 37 10 -39 22 23 118 75 116 12 0 5 -13 -16 -29z m2652 -26 c39 -39 -9 -67 -106 -60 -84 6 -120 44 -73 78 29 20 153 8 179 -18z m-3366 -217 c39 -27 49 -28 63 -5 11 17 16 -2 14 -54 -3 -72 -11 -86 -64 -107 l-61 -25 50 -14 50 -14 -60 -16 c-78 -20 -110 -48 -110 -96 0 -22 -9 -33 -21 -25 -13 8 -17 43 -9 87 10 59 4 81 -29 111 -121 110 40 254 177 158z m4022 3 c101 52 220 14 220 -70 0 -45 -83 -140 -122 -140 -15 0 -7 -14 19 -32 26 -19 43 -48 39 -71 -8 -52 -44 -57 -53 -7 -9 47 -59 88 -113 92 -35 2 -36 4 -4 12 42 11 10 66 -38 66 -16 0 -28 20 -28 45 0 25 -6 68 -12 95 -9 43 -7 45 12 15 20 -32 27 -32 80 -5z m-3410 -70 c7 -12 -10 -48 -39 -82 -28 -34 -51 -69 -51 -80 0 -34 -58 -18 -80 22 -49 91 117 226 170 140z m2933 -13 c21 -18 37 -59 37 -91 0 -70 -55 -99 -86 -45 -11 21 -42 59 -68 85 -78 78 34 127 117 51z m-352 -48 c9 -15 20 -15 38 0 28 24 151 -10 151 -41 0 -10 12 -18 26 -18 14 0 25 -17 25 -37 0 -32 -8 -29 -57 20 -73 73 -118 75 -51 2 65 -70 80 -114 58 -170 -16 -43 -61 17 -61 83 0 26 -72 83 -87 69 -7 -8 -14 -1 -14 15 -1 15 -15 -14 -30 -65 -27 -87 -159 -237 -209 -237 -37 0 -20 32 42 78 77 57 144 201 126 271 -12 51 17 72 43 30z m-2011 -79 c0 -11 -19 -20 -42 -20 -25 0 -46 -16 -52 -41 -13 -47 -53 -42 -62 8 -4 20 12 41 40 52 62 25 116 25 116 1z m1803 -24 c20 -31 12 -61 -17 -71 -11 -3 -26 12 -32 34 -6 24 -27 41 -51 41 -22 0 -47 10 -55 23 -10 17 7 20 62 11 42 -7 84 -24 93 -38z m941 15 c6 6 16 -3 23 -20 7 -20 -7 -43 -38 -64 -61 -39 -92 -19 -38 24 28 23 32 35 14 42 -14 6 -25 20 -25 31 0 14 9 13 27 -1 15 -13 31 -18 37 -12z m-3324 -105 l0 -75 -34 48 c-24 35 -27 51 -10 56 14 5 19 17 13 27 -6 10 -2 18 10 18 11 0 21 -34 21 -74z m-540 -27 c0 -42 -29 -52 -51 -18 -18 29 6 84 31 69 11 -7 20 -30 20 -51z m3950 11 c0 -20 -11 -40 -25 -45 -16 -5 -25 11 -25 45 0 34 9 50 25 45 14 -5 25 -25 25 -45z m-2670 -29 c0 -21 9 -44 20 -51 11 -7 20 -22 20 -34 0 -12 -16 -7 -37 11 -20 18 -49 32 -65 32 -15 -1 -8 -10 17 -20 43 -17 54 -39 46 -96 -2 -17 6 -21 23 -12 14 9 8 -4 -14 -29 -30 -35 -53 -43 -100 -34 -50 9 -54 8 -23 -10 20 -12 63 -17 95 -11 69 14 77 -1 13 -25 -53 -19 -158 12 -151 45 2 13 -3 44 -12 69 -17 52 31 144 76 144 15 0 33 14 39 30 17 43 53 37 53 -9z m1380 9 c0 -17 18 -30 40 -30 95 0 120 -173 30 -207 -54 -21 -109 -14 -60 7 33 14 34 17 6 19 -19 0 -45 20 -57 42 -31 58 11 105 80 91 l51 -11 -47 23 c-36 19 -56 18 -90 -3 -38 -24 -40 -24 -17 4 14 17 24 38 22 48 -5 31 2 47 22 47 11 0 20 -13 20 -30z m-2210 -161 c101 -43 84 -49 -80 -31 -138 15 -139 15 -70 37 39 12 71 22 73 23 1 1 36 -12 77 -29z m3176 -8 c9 -9 -45 -20 -120 -26 -160 -13 -174 -7 -83 33 64 28 169 24 203 -7z m-3513 -37 c-18 -21 -33 -46 -33 -57 0 -11 -22 -31 -50 -43 -77 -36 -65 19 22 95 75 66 120 69 61 5z m3739 -12 c64 -64 87 -113 53 -111 -42 1 -185 179 -144 179 13 0 54 -31 91 -68z m-1710 -18 c18 -68 -3 -81 -107 -63 l-84 14 69 58 c80 66 102 65 122 -9z m-1725 4 l63 -22 -41 -58 c-42 -58 -79 -76 -79 -38 0 11 18 38 40 60 40 40 40 40 -29 40 -93 0 -171 -32 -228 -93 -62 -65 -102 -34 -53 40 22 34 59 56 107 64 40 6 87 15 103 18 17 4 35 7 42 9 7 1 40 -8 75 -20z m3255 -1 c52 -13 105 -43 128 -72 49 -62 31 -99 -27 -56 -120 88 -169 111 -241 111 l-79 0 47 -50 c61 -65 35 -91 -30 -30 -59 56 -56 84 11 102 73 21 93 20 191 -5z m-3712 -28 c0 -37 -47 -89 -81 -89 -54 0 -50 57 6 79 54 22 75 25 75 10z m1028 -11 c-5 -10 -22 -18 -36 -18 -15 0 -50 -19 -79 -41 -60 -48 -72 -18 -15 39 36 36 152 54 130 20z m1763 -3 c-17 -9 -31 -37 -31 -62 0 -24 -19 -60 -42 -80 -23 -20 -36 -41 -30 -48 7 -6 34 8 60 33 31 29 53 37 61 24 7 -12 35 -22 62 -22 54 0 65 -42 22 -78 -26 -21 -88 17 -65 40 5 4 -13 9 -40 11 l-48 3 52 -41 c29 -23 66 -69 81 -103 l29 -62 -10 65 c-13 79 18 88 34 10 6 -30 17 -71 25 -90 10 -27 3 -35 -29 -35 -23 0 -42 9 -42 20 0 11 -18 2 -40 -20 -74 -74 -209 -49 -251 48 -15 34 -28 49 -28 32 -3 -133 157 -204 266 -119 49 38 54 39 66 8 23 -59 -108 -131 -188 -104 -8 3 -19 -22 -25 -55 -6 -35 -24 -62 -45 -66 -42 -8 -47 43 -8 79 22 21 19 34 -20 76 -26 28 -56 79 -68 114 -11 34 -38 67 -60 73 -21 6 -39 21 -39 34 0 16 17 20 50 12 31 -8 50 -4 50 10 0 12 13 17 28 11 42 -16 55 40 16 70 -19 14 -28 18 -20 9 23 -28 -43 -81 -69 -55 -16 16 -13 25 12 34 18 8 33 26 33 41 0 15 14 28 32 28 20 0 28 11 21 30 -16 40 7 38 37 -3 13 -18 34 -27 47 -19 40 25 25 71 -28 84 -37 9 -45 19 -30 37 11 14 17 28 13 33 -5 4 36 9 91 9 67 1 89 -4 68 -16z m289 -25 c26 -27 41 -55 34 -62 -13 -14 -131 72 -133 97 -2 32 54 12 99 -35z m977 18 c30 -21 40 -39 27 -52 -24 -24 -94 10 -111 53 -15 40 26 40 84 -1z m-3734 -70 c-66 -60 -103 -67 -118 -22 -5 14 22 38 58 53 110 48 133 36 60 -31z m1026 21 c-22 -8 -45 -11 -52 -7 -15 9 -39 -76 -25 -91 6 -5 18 2 27 17 13 21 19 21 32 0 9 -15 6 -29 -8 -34 -13 -4 -18 -16 -12 -26 21 -34 49 3 49 64 0 33 9 55 19 49 11 -7 14 -25 8 -42 -7 -18 1 -29 21 -29 18 0 32 -13 32 -28 0 -15 15 -33 33 -41 25 -9 28 -18 11 -35 -17 -17 -33 -12 -61 21 -33 37 -40 39 -50 12 -7 -17 -5 -26 5 -20 34 21 66 -49 59 -127 -6 -63 -1 -82 28 -89 43 -11 47 -53 5 -53 -16 0 -30 11 -30 24 0 17 -7 17 -25 -2 -20 -22 -20 -29 0 -36 30 -11 34 -66 5 -66 -11 0 -20 14 -20 30 0 17 -13 30 -30 30 -16 0 -30 -8 -30 -19 0 -10 -38 -21 -85 -25 -75 -5 -84 -11 -80 -52 4 -42 -42 -83 -67 -59 -17 17 15 115 34 104 10 -6 18 -2 18 9 0 11 -17 30 -38 41 -21 11 -54 61 -73 111 -19 49 -46 90 -61 90 -14 0 -32 10 -40 23 -9 15 5 20 48 13 65 -9 99 42 72 112 -17 45 49 42 86 -3 16 -19 23 -24 16 -10 -7 14 -2 41 9 60 20 32 22 32 16 -5 -4 -29 8 -42 45 -47 48 -7 49 -6 15 32 -41 44 -48 134 -10 120 14 -5 43 -3 65 5 22 8 48 10 59 4 10 -6 1 -17 -20 -25z m2396 -13 c19 -17 29 -40 23 -49 -23 -37 -168 40 -168 88 0 27 102 -1 145 -39z m-2685 17 c0 -9 -19 -34 -43 -55 -23 -21 -63 -83 -88 -138 -49 -111 -113 -179 -153 -165 -16 6 -5 19 28 35 42 20 65 56 97 153 43 129 159 253 159 170z m1927 -24 c33 -26 65 -83 85 -152 24 -84 46 -119 95 -148 35 -22 52 -39 40 -39 -60 0 -94 35 -158 162 -38 75 -87 146 -109 158 -40 22 -55 60 -23 60 10 0 41 -19 70 -41z m-2211 -123 c33 -33 30 -86 -6 -116 -24 -20 -30 -19 -30 5 0 47 -45 72 -95 53 -62 -23 -60 -139 5 -286 28 -62 50 -131 50 -153 0 -66 37 -44 59 36 11 41 21 91 21 110 0 68 55 34 130 -80 41 -63 93 -134 114 -158 31 -34 35 -52 18 -82 -11 -22 -14 -47 -6 -56 8 -8 3 -9 -11 -1 -14 8 -26 3 -27 -12 -1 -14 -4 -44 -8 -66 -4 -22 -13 -105 -21 -184 -17 -170 -34 -176 -169 -60 -65 55 -105 74 -157 74 -179 0 -222 43 -203 200 8 61 16 101 17 89 5 -39 139 -6 186 46 26 28 34 44 17 35 -23 -12 -25 -10 -7 9 26 29 -1 129 -83 306 -59 128 -56 200 12 272 44 48 155 58 194 19z m1157 -309 c131 -77 247 -74 332 8 77 75 95 68 95 -33 0 -40 15 -114 33 -165 l33 -92 -72 -73 c-40 -39 -82 -72 -93 -72 -12 0 -21 -9 -21 -20 0 -11 -7 -19 -15 -17 -8 2 -42 -8 -75 -21 -79 -33 -154 -39 -185 -16 -17 13 -25 10 -25 -8 0 -19 -6 -20 -22 -4 -13 13 -35 18 -50 12 -16 -6 -28 0 -28 13 0 13 -8 18 -19 12 -10 -6 -24 -2 -31 9 -7 11 -21 15 -31 9 -11 -6 -19 -2 -19 10 0 11 -9 21 -20 21 -10 0 -54 33 -97 74 l-77 74 39 111 c21 61 44 176 50 255 l11 145 100 -91 c56 -50 140 -113 187 -141z m942 -179 c-20 -20 -75 19 -70 49 9 58 44 64 62 11 9 -28 13 -55 8 -60z m-1617 -52 c-24 -45 -58 -29 -58 26 0 86 45 136 63 70 8 -33 7 -74 -5 -96z m110 112 c18 -48 14 -68 -14 -68 -46 0 -74 42 -47 72 31 35 46 34 61 -4z m1397 -45 c6 -21 3 -51 -7 -66 -27 -44 -65 11 -50 72 14 57 41 54 57 -6z m-2586 -28 c-133 -67 -184 -168 -170 -335 10 -128 10 -129 -22 -72 -81 147 6 363 173 430 95 37 108 22 19 -23z m3648 17 c134 -56 230 -281 171 -403 -36 -73 -90 -95 -65 -26 65 180 1 344 -163 418 -93 42 -41 52 57 11z m-1288 -197 c0 -8 -15 -15 -34 -15 -30 -1 -31 -3 -5 -20 27 -17 15 -28 -24 -23 -8 2 -10 -9 -5 -22 11 -33 -86 -139 -156 -170 -30 -13 -55 -32 -55 -42 0 -19 -86 -38 -228 -51 -89 -8 -278 31 -321 67 -16 13 -41 18 -55 10 -14 -9 -20 -9 -13 -1 6 7 -24 49 -67 92 -44 42 -74 87 -66 99 7 12 6 21 -4 19 -40 -7 -53 4 -26 22 26 17 26 19 -3 20 -20 0 -31 14 -28 34 7 48 45 55 59 11 63 -199 490 -314 724 -195 85 43 101 46 120 20 12 -16 28 -24 35 -17 7 8 2 26 -10 41 -18 22 -14 34 20 58 24 17 58 59 76 94 32 62 58 49 66 -31z m-2205 22 c55 -53 58 -111 7 -172 -50 -60 -153 -61 -204 -2 -114 132 69 293 197 174z m3505 -10 c98 -125 -84 -281 -202 -174 -46 41 -48 142 -4 190 51 57 155 48 206 -16z m-2402 -74 c198 -449 905 -448 1107 2 46 104 89 114 46 11 -218 -522 -1050 -502 -1218 29 -26 81 25 48 65 -42z m-241 -37 c35 -35 29 -62 -9 -48 -27 11 -29 8 -7 -18 20 -25 19 -30 -5 -30 -42 0 -82 53 -68 90 14 36 56 39 89 6z m1678 -9 c9 -27 -47 -87 -83 -87 -22 0 -26 28 -14 106 4 24 89 8 97 -19z m-64 -138 c96 -46 148 -200 75 -224 -16 -5 -25 12 -25 51 0 55 -81 164 -123 164 -9 0 -17 9 -17 20 0 27 13 25 90 -11z m-1560 -9 c-7 -11 1 -20 18 -20 76 0 65 -51 -16 -71 -53 -13 -57 -11 -47 28 6 24 3 43 -6 43 -25 0 -74 -79 -90 -145 -15 -61 -39 -71 -57 -24 -16 42 35 160 81 186 47 28 133 30 117 3z m1509 -48 c12 -16 16 -33 7 -38 -22 -14 -126 7 -126 25 0 47 83 56 119 13z m-1382 -94 c-21 -13 -19 -17 8 -18 57 0 40 -31 -35 -60 -38 -15 -70 -40 -70 -55 0 -39 78 -185 98 -185 19 0 48 -61 35 -74 -19 -18 -129 98 -162 173 -45 98 -24 198 48 234 54 27 123 13 78 -15z m1328 -14 c78 -67 25 -262 -95 -349 -41 -30 -54 -14 -22 30 143 198 143 198 -44 288 -4 2 9 21 28 43 36 43 73 39 133 -12z m-1205 -64 c0 -11 14 -20 30 -20 38 0 39 -28 1 -59 -37 -31 -73 -10 -57 33 9 23 5 28 -12 17 -15 -9 -20 -35 -13 -63 13 -53 -23 -67 -42 -17 -17 43 25 129 63 129 16 0 30 -9 30 -20z m1050 -27 c34 -52 22 -113 -22 -113 -14 0 -22 12 -17 27 7 17 -5 26 -35 25 -29 -1 -47 11 -52 36 -6 29 1 35 32 27 29 -7 38 -3 30 17 -17 46 31 31 64 -19z m-854 -77 c17 -17 17 -30 1 -50 -44 -53 -109 -21 -85 42 14 38 51 41 84 8z m658 2 c27 -27 12 -78 -22 -78 -37 0 -70 42 -58 72 12 34 50 36 80 6z m-514 -35 c0 -41 -121 -179 -179 -202 -83 -35 -136 4 -71 51 22 16 81 60 130 98 93 70 120 82 120 53z m415 -53 c52 -38 113 -82 135 -98 54 -39 16 -79 -57 -61 -57 14 -193 158 -193 203 0 37 9 34 115 -44z"/> <path d="M4691 5056 c-37 -35 -37 -36 14 -36 66 0 155 33 155 58 0 32 -129 16 -169 -22z"/> <path d="M1261 4985 c0 -19 14 -53 30 -74 16 -21 24 -56 17 -77 -8 -25 5 -56 38 -91 27 -29 60 -74 73 -100 35 -67 61 -28 47 72 -10 74 -66 129 -66 65 0 -11 -9 -20 -20 -20 -11 0 -20 20 -20 45 0 25 -14 71 -30 102 -17 32 -30 70 -30 85 0 16 -9 28 -20 28 -11 0 -20 -16 -19 -35z"/> <path d="M4945 4966 c-16 -6 -24 -46 -23 -113 2 -56 7 -85 13 -63 5 22 20 47 32 55 16 11 14 21 -7 35 -16 11 -20 20 -7 20 26 0 52 55 31 67 -8 4 -25 4 -39 -1z"/> <path d="M958 4925 c-2 -19 -1 -44 2 -55 3 -11 5 -31 6 -45 1 -47 34 -25 34 23 0 27 5 63 12 80 8 21 1 32 -20 32 -18 0 -33 -16 -34 -35z"/> <path d="M4504 4861 c-2 -69 -42 -158 -43 -96 -1 19 -14 35 -31 35 -17 0 -30 -18 -30 -41 0 -23 -8 -57 -19 -76 -32 -61 8 -94 55 -47 22 22 36 45 30 51 -14 15 45 73 74 73 12 0 17 9 10 20 -7 11 2 20 19 20 17 0 31 9 31 20 0 11 -14 20 -31 20 -23 0 -28 12 -19 40 9 27 4 40 -16 40 -17 0 -29 -22 -30 -59z"/> <path d="M1197 4615 c-21 -40 -20 -42 8 -19 18 15 58 34 89 44 l56 17 -64 1 c-48 2 -71 -10 -89 -43z"/> <path d="M401 3993 c-33 -33 -25 -44 32 -49 49 -4 107 25 107 53 0 22 -117 18 -139 -4z"/> <path d="M5361 3975 c-1 -36 15 -65 49 -87 55 -36 190 -71 190 -50 0 29 -50 62 -95 62 -29 0 -53 16 -64 45 -11 27 -19 33 -20 15 -2 -19 -13 -11 -31 20 l-29 50 0 -55z"/> <path d="M282 3734 c17 -13 40 -50 51 -83 29 -86 77 -95 60 -11 -14 68 -62 119 -113 119 -26 0 -25 -4 2 -25z"/> <path d="M5620 3699 c0 -12 -9 -16 -19 -9 -29 17 -131 -106 -133 -161 -1 -26 6 -43 15 -37 9 6 17 24 17 42 0 26 5 27 34 3 29 -24 32 -23 20 9 -10 26 0 40 34 53 59 23 102 121 52 121 -11 0 -20 -10 -20 -21z"/> <path d="M5296 2996 c13 -13 24 -49 24 -79 0 -41 8 -53 30 -44 33 13 41 67 10 67 -11 0 -20 10 -20 21 0 12 11 15 25 6 17 -10 16 -4 -2 19 -16 19 -42 34 -59 34 -25 0 -27 -5 -8 -24z"/> <path d="M450 2860 c-7 -12 -22 -15 -33 -8 -11 7 -8 -6 6 -29 20 -33 20 -51 -3 -97 -15 -31 -31 -63 -35 -71 -4 -8 1 -15 12 -15 21 0 73 102 94 185 13 54 -15 78 -41 35z"/> <path d="M5412 2695 c2 -25 5 -55 6 -68 4 -46 82 -46 82 0 -1 31 -5 36 -17 16 -12 -18 -21 -8 -30 35 -14 71 -49 85 -41 17z"/> <path d="M277 2666 c-6 -86 -12 -122 -25 -143 -24 -39 40 -25 78 17 21 23 26 40 13 40 -13 0 -23 22 -23 49 0 57 -39 91 -43 37z"/> <path d="M5205 2667 c-46 -19 -25 -47 35 -47 64 0 81 28 28 48 -17 7 -33 11 -35 10 -1 0 -14 -6 -28 -11z"/> <path d="M559 2633 c-25 -13 -43 -32 -41 -43 5 -27 105 -13 139 19 37 36 -38 54 -98 24z"/> <path d="M5180 2572 c0 -18 30 -34 81 -42 91 -16 104 -11 80 28 -24 39 -161 51 -161 14z"/> <path d="M5480 2521 c0 -23 52 -75 102 -102 26 -14 38 -14 38 1 0 12 -13 26 -29 32 -16 7 -35 29 -42 50 -12 38 -69 54 -69 19z"/> <path d="M624 2428 c-21 -14 -44 -21 -51 -14 -7 7 -13 3 -13 -9 0 -41 35 -45 108 -15 40 17 72 34 72 38 0 23 -83 23 -116 0z"/> <path d="M675 2366 c-19 -5 -35 -17 -35 -26 0 -21 123 -84 137 -70 5 5 -1 10 -14 10 -12 0 -23 14 -23 30 0 17 9 30 20 30 11 0 20 9 20 20 0 20 -42 23 -105 6z"/> <path d="M5097 2365 c-12 -63 -8 -165 6 -165 9 0 17 8 17 19 0 10 19 24 41 31 26 8 38 25 31 42 -8 22 1 26 39 16 52 -13 64 9 25 48 -26 26 -154 33 -159 9z"/> <path d="M331 2335 c5 -14 30 -35 54 -45 24 -11 56 -42 69 -70 14 -27 26 -39 26 -26 0 29 80 26 80 -3 1 -35 96 -114 110 -92 7 12 3 21 -9 21 -11 0 -21 8 -21 18 0 10 20 14 45 10 41 -8 42 -8 5 9 -22 10 -48 18 -58 19 -10 0 -25 13 -34 27 -9 15 -28 28 -42 30 -14 1 -37 3 -51 5 -14 1 -25 15 -25 31 0 17 -27 44 -59 60 -72 38 -103 39 -90 6z"/> <path d="M5375 2247 c-112 -60 -114 -66 -35 -111 52 -30 60 -30 60 -4 0 18 -10 24 -23 16 -13 -8 -19 -3 -13 14 5 15 26 31 47 35 21 4 49 22 61 40 20 26 29 27 54 6 26 -21 35 -19 53 16 33 61 -81 54 -204 -12z"/> <path d="M1465 1519 c-85 -34 -46 -57 45 -26 50 17 90 34 90 39 0 14 -89 6 -135 -13z"/> <path d="M4309 1508 c43 -16 88 -25 100 -21 29 11 -82 53 -135 52 -31 -1 -20 -11 35 -31z"/> <path d="M2880 1261 c-76 -150 7 -295 107 -184 46 50 0 263 -57 263 -5 0 -27 -36 -50 -79z"/> <path d="M3111 1087 c9 -74 4 -107 -20 -137 -31 -38 -32 -36 -21 43 8 51 4 88 -9 96 -12 8 -21 -3 -21 -25 0 -129 -144 -180 -198 -69 -43 86 -67 82 -52 -10 12 -72 11 -73 -20 -35 -23 28 -30 65 -24 125 10 94 -16 113 -46 34 -46 -119 12 -269 102 -269 25 0 51 -25 72 -70 41 -86 70 -89 100 -10 12 33 39 65 59 71 71 23 97 43 125 99 23 48 30 51 46 23 10 -18 31 -33 48 -33 41 0 58 54 28 90 -26 31 -70 42 -52 13 6 -9 -2 -16 -17 -16 -15 0 -37 34 -49 75 -35 116 -66 119 -51 5z"/> <path d="M1224 1125 c10 -52 76 -58 76 -6 0 28 -13 41 -41 41 -29 0 -40 -11 -35 -35z"/> <path d="M4554 1147 c-31 -31 -13 -70 31 -63 25 3 45 19 45 36 0 32 -53 51 -76 27z"/> <path d="M955 1115 c-4 -13 12 -40 37 -60 55 -43 111 -47 95 -5 -6 16 -21 24 -32 17 -14 -9 -17 3 -10 30 13 48 -74 66 -90 18z"/> <path d="M2067 1109 c-17 -44 25 -85 56 -54 25 25 9 85 -23 85 -12 0 -27 -14 -33 -31z"/> <path d="M3713 1111 c-15 -39 42 -84 71 -55 27 27 6 84 -31 84 -16 0 -34 -13 -40 -29z"/> <path d="M4760 1072 c0 -16 11 -34 25 -41 14 -6 5 -8 -20 -3 -33 6 -45 -1 -45 -29 0 -20 -19 -42 -42 -50 -49 -15 -118 -80 -118 -110 0 -12 27 -5 60 14 33 20 60 42 60 50 0 8 42 44 93 79 87 60 90 66 56 91 -47 35 -69 34 -69 -1z"/> <path d="M2240 1030 c0 -16 13 -30 28 -30 15 0 33 -14 40 -31 6 -17 21 -26 32 -19 29 18 24 50 -8 50 -15 0 -33 14 -39 30 -7 17 -21 30 -32 30 -12 0 -21 -13 -21 -30z"/> <path d="M3570 1040 c-7 -11 2 -26 19 -32 17 -7 31 -24 31 -38 0 -29 49 -54 68 -35 26 26 10 65 -28 65 -22 0 -40 13 -40 30 0 34 -31 40 -50 10z"/> <path d="M2581 1011 c-33 -40 -11 -96 34 -87 22 4 35 25 35 55 0 58 -35 74 -69 32z"/> <path d="M2153 984 c-23 -36 22 -73 55 -45 17 14 27 34 21 43 -14 22 -63 23 -76 2z"/> <path d="M3428 977 c-11 -19 11 -28 67 -27 24 0 47 9 50 20 6 23 -103 30 -117 7z"/> <path d="M1200 924 c0 -16 -10 -20 -25 -12 -14 8 -7 -6 15 -32 99 -115 534 -356 814 -451 l136 -47 0 88 c0 105 -15 150 -52 150 -15 0 -22 12 -16 28 6 15 0 35 -14 43 -15 9 -19 7 -11 -7 8 -11 5 -27 -5 -33 -11 -7 -16 10 -10 40 12 68 -7 98 -44 67 -22 -18 -23 -30 -6 -51 17 -20 16 -35 -5 -61 -23 -29 -23 -31 1 -17 21 13 26 9 17 -13 -8 -20 -1 -30 19 -29 39 4 52 -27 28 -65 -29 -44 -121 -12 -108 38 11 42 -59 60 -83 22 -21 -35 -81 -9 -79 35 0 24 -6 43 -15 43 -10 0 -17 -11 -18 -25 0 -17 -9 -14 -25 7 -13 17 -34 28 -46 24 -48 -16 -125 31 -115 71 6 21 1 45 -11 52 -12 7 -22 4 -22 -8 0 -11 -18 -21 -40 -21 -37 0 -50 22 -41 70 3 11 -2 13 -10 5 -8 -8 -25 -1 -37 15 -12 15 -53 34 -91 40 -39 7 -77 23 -85 36 -12 18 -15 17 -16 -2z"/> <path d="M2232 887 c-14 -37 20 -87 60 -87 32 0 66 60 54 95 -13 36 -100 31 -114 -8z"/> <path d="M3513 907 c-27 -28 -12 -85 27 -97 54 -17 80 3 80 61 0 48 -71 72 -107 36z"/> <path d="M1909 838 c-7 -12 -3 -32 10 -45 25 -25 68 20 49 51 -14 23 -43 20 -59 -6z"/> <path d="M3406 772 c2 -44 15 -83 29 -87 32 -11 30 30 -5 105 l-28 60 4 -78z"/> <path d="M3825 770 c-36 -40 -31 -51 18 -43 24 4 46 21 49 40 6 40 -33 42 -67 3z"/> <path d="M3781 672 c-14 -18 -37 -32 -51 -32 -22 0 -32 -27 -61 -157 -9 -41 12 -83 41 -83 14 0 24 16 23 35 -2 19 8 34 20 35 37 0 58 30 22 30 -37 0 -52 35 -39 87 7 28 13 30 26 10 13 -19 17 -20 18 -3 0 14 13 20 28 14 40 -15 55 20 25 61 -23 31 -27 32 -52 3z"/> <path d="M3152 664 c-5 -9 9 -33 32 -52 33 -29 44 -31 58 -9 11 17 5 36 -16 52 -39 29 -60 31 -74 9z"/> <path d="M2435 593 c-41 -24 -71 -54 -66 -67 5 -14 -6 -20 -29 -16 -36 7 -140 -89 -140 -129 0 -40 450 -99 484 -65 19 19 18 24 -1 24 -14 0 -20 8 -14 18 6 9 -5 16 -24 15 -19 -2 -33 6 -31 18 5 31 -94 33 -106 1 -6 -16 -27 -23 -49 -18 -21 6 -34 18 -29 26 14 23 -44 41 -85 27 -19 -6 -9 7 24 30 32 22 66 36 75 31 9 -6 16 3 16 19 0 16 -11 33 -24 38 -15 5 -10 13 11 21 24 9 30 6 21 -10 -10 -16 -3 -18 24 -7 21 9 62 21 92 26 35 6 50 18 42 37 -15 40 -103 31 -191 -19z"/> <path d="M3340 563 c0 -26 86 -116 125 -129 21 -8 30 -25 23 -43 -9 -22 0 -31 30 -31 52 0 60 94 10 114 -18 6 -55 33 -83 59 -51 47 -105 62 -105 30z"/> <path d="M2872 5731 c-44 -68 -42 -106 5 -64 45 41 61 41 104 2 31 -28 35 -27 45 12 6 24 6 38 -1 31 -6 -6 -24 6 -39 28 -38 53 -75 50 -114 -9z"/> <path d="M2864 5581 c-25 -34 -36 -61 -25 -61 12 0 21 7 21 15 0 46 85 67 126 31 43 -36 43 -36 11 14 -45 71 -82 71 -133 1z"/> <path d="M2585 5415 c10 -29 135 -46 135 -18 0 23 -48 43 -103 43 -23 0 -37 -11 -32 -25z"/> <path d="M3154 5428 c-31 -32 -10 -50 51 -44 36 3 63 15 61 26 -6 24 -92 38 -112 18z"/> <path d="M2805 5019 c-25 -10 -45 -27 -45 -38 0 -12 -13 -21 -29 -21 -82 0 -129 -137 -87 -254 37 -103 78 -86 63 26 -11 75 -7 97 20 111 18 11 33 32 33 47 0 16 12 24 28 18 15 -6 53 16 84 48 l57 58 58 -58 c32 -32 71 -54 86 -48 15 6 27 -2 27 -18 0 -15 15 -36 33 -46 26 -15 31 -39 22 -111 -12 -106 20 -126 60 -39 46 99 -2 266 -76 266 -11 0 -37 18 -59 40 -43 43 -190 54 -275 19z"/> <path d="M2851 4841 c-50 -52 -55 -70 -47 -157 l10 -98 -54 20 c-67 25 -124 7 -108 -35 7 -17 2 -31 -10 -31 -12 0 -22 14 -22 30 0 17 -11 29 -25 29 -48 -3 -105 -33 -105 -56 0 -13 -9 -21 -20 -18 -11 3 -18 12 -15 20 8 23 -127 -37 -197 -86 -45 -32 -57 -53 -48 -86 11 -40 10 -40 -16 -8 -45 56 -275 -217 -273 -325 1 -47 3 -46 29 15 20 46 41 65 74 65 37 1 40 4 16 21 -25 16 -18 30 40 80 90 78 171 121 191 103 8 -8 10 -4 2 9 -14 25 116 93 277 144 125 39 654 47 691 10 13 -13 36 -19 51 -13 91 34 525 -258 610 -412 l40 -72 -11 67 c-6 37 -33 94 -61 127 -27 32 -50 68 -50 80 0 11 -13 15 -30 9 -20 -8 -30 1 -30 25 0 50 -47 86 -91 69 -28 -11 -33 -6 -23 19 15 41 -64 104 -94 74 -33 -33 -56 -23 -43 18 10 29 -2 42 -48 59 -50 17 -61 16 -61 -8 0 -16 -10 -29 -22 -29 -12 0 -17 14 -11 31 8 20 -5 37 -39 50 -70 26 -88 24 -88 -11 0 -16 -10 -30 -22 -30 -12 0 -17 14 -10 31 16 43 -38 59 -118 34 l-66 -20 28 66 c32 77 22 118 -49 194 -64 69 -82 69 -152 -4z m169 -88 c0 -11 -21 0 -48 25 l-47 44 -43 -53 c-23 -30 -42 -64 -42 -75 0 -11 -5 -15 -12 -9 -13 13 23 89 68 140 32 37 124 -17 124 -72z m-60 -133 c0 -38 -10 -60 -28 -60 -34 0 -49 36 -36 85 15 60 64 41 64 -25z"/> <path d="M2425 4759 c-25 -10 -45 -35 -45 -56 0 -26 -18 -42 -56 -49 -55 -11 -148 -137 -121 -164 6 -6 70 20 142 58 72 38 162 75 199 82 68 13 69 14 48 82 -23 73 -71 86 -167 47z m91 -43 c7 -35 -69 -63 -88 -33 -15 25 32 80 60 71 12 -4 25 -21 28 -38z"/> <path d="M3273 4715 l-26 -65 124 -41 c68 -22 161 -65 206 -95 57 -37 83 -46 83 -27 0 48 -89 161 -136 172 -26 6 -44 16 -40 23 9 17 -45 78 -69 78 -11 0 -10 -12 4 -29 28 -34 12 -71 -31 -71 -41 0 -58 54 -28 90 21 25 18 30 -17 30 -30 0 -51 -20 -70 -65z m287 -105 c0 -17 -18 -30 -40 -30 -40 0 -52 21 -27 47 25 24 67 13 67 -17z"/> <path d="M2078 4464 c-2 -8 -1 -30 1 -49 2 -24 -6 -31 -28 -23 -20 8 -31 1 -31 -20 0 -47 53 -39 89 12 17 25 31 51 31 58 0 19 -59 40 -62 22z"/> <path d="M3724 4427 c9 -51 56 -57 56 -9 0 25 -13 42 -31 42 -19 0 -29 -14 -25 -33z"/> <path d="M3790 4380 c-12 -19 87 -160 113 -160 7 0 9 18 3 40 -6 22 -23 40 -38 40 -17 0 -28 21 -28 50 0 50 -27 67 -50 30z"/> <path d="M1940 4250 c0 -27 3 -50 8 -50 4 0 22 23 40 50 31 48 31 50 -8 50 -29 0 -40 -13 -40 -50z"/> <path d="M1063 4348 c4 -21 46 -57 92 -80 46 -23 79 -48 71 -55 -7 -7 6 -13 29 -13 67 0 71 33 11 100 -69 76 -215 111 -203 48z"/> <path d="M4660 4358 c-112 -44 -151 -149 -61 -162 32 -5 54 -1 48 9 -16 26 11 115 35 115 11 0 15 -9 8 -20 -18 -28 57 -25 86 4 65 65 -6 97 -116 54z"/> <path d="M2899 3908 c-97 -251 -91 -308 29 -308 111 0 126 40 72 196 -58 168 -73 185 -101 112z"/> <path d="M2888 3551 c-18 -47 7 -95 47 -87 47 9 47 103 0 112 -19 4 -41 -7 -47 -25z"/> <path d="M2490 3460 c-35 -17 -32 -19 20 -17 113 5 162 -3 201 -34 38 -31 38 -31 -1 -12 -43 20 -410 40 -410 22 0 -25 154 -158 206 -178 83 -31 201 -28 188 6 -22 56 20 84 65 44 51 -47 64 -36 44 39 -28 107 -207 181 -313 130z m50 -140 c0 -46 -8 -48 -61 -19 -54 29 -49 59 11 59 37 0 50 -11 50 -40z"/> <path d="M3170 3452 c-72 -31 -100 -64 -118 -137 -15 -63 -1 -69 53 -21 32 29 40 30 55 6 11 -18 9 -34 -5 -43 -40 -25 39 -43 128 -31 83 11 198 88 250 166 30 45 -222 50 -363 7 -56 -17 -57 -16 -21 11 23 18 83 30 150 30 79 1 102 6 81 20 -42 27 -139 23 -210 -8z m250 -111 c0 -18 -63 -61 -89 -61 -6 0 -11 18 -11 40 0 29 13 40 50 40 28 0 50 -9 50 -19z"/> <path d="M789 3438 c-22 -35 21 -61 78 -47 60 15 69 39 21 57 -47 18 -84 15 -99 -10z"/> <path d="M4950 3442 c-38 -15 -37 -17 7 -40 54 -29 103 -16 103 27 0 33 -45 38 -110 13z"/> <path d="M3600 3025 c0 -31 56 -70 79 -56 12 8 21 29 21 47 -1 28 -4 29 -19 5 -15 -24 -23 -24 -49 -2 -18 14 -32 17 -32 6z"/> <path d="M3593 2623 c-76 -83 -30 -203 77 -203 76 0 110 31 110 100 0 118 -116 182 -187 103z m135 -50 c47 -63 28 -119 -46 -130 -92 -13 -129 69 -70 154 38 54 62 49 116 -24z"/> <path d="M3603 2509 c10 -51 106 -65 125 -18 10 27 4 32 -32 22 -24 -6 -57 -1 -72 12 -23 19 -27 16 -21 -16z"/> <path d="M2116 2625 c-82 -96 -45 -205 70 -205 79 0 114 30 114 100 0 116 -117 183 -184 105z m153 -76 c13 -54 -16 -109 -56 -108 -13 0 -7 9 12 21 50 29 44 65 -9 51 -24 -6 -56 -2 -70 10 -19 16 -26 14 -26 -10 0 -17 16 -40 35 -51 31 -18 31 -21 2 -21 -65 -2 -76 100 -17 159 51 51 109 27 129 -51z"/> <path d="M2022 2527 c-3 -69 19 -106 79 -138 66 -33 139 -38 139 -9 0 11 -30 20 -68 20 -74 0 -106 28 -132 114 -14 46 -17 48 -18 13z"/> <path d="M2880 2140 c0 -9 -20 -21 -45 -25 -25 -5 6 -8 69 -7 63 0 112 3 108 7 -18 18 -132 40 -132 25z"/> <path d="M3233 1810 c-7 -17 -22 -28 -35 -25 -13 3 -27 -6 -32 -20 -13 -36 23 -31 75 12 28 22 37 42 24 50 -11 7 -26 -1 -32 -17z"/> <path d="M2617 1779 c54 -44 91 -51 78 -14 -5 14 -24 24 -42 22 -18 -1 -33 5 -33 15 0 10 -11 18 -25 17 -14 0 -4 -18 22 -40z"/> <path d="M3091 1741 c-7 -11 -25 -14 -42 -8 -16 6 -29 1 -29 -12 0 -31 104 -19 115 14 10 29 -27 34 -44 6z"/> <path d="M2860 1721 c0 -25 90 -49 119 -32 31 20 26 51 -9 51 -16 0 -30 -9 -30 -21 0 -14 -13 -14 -40 1 -26 14 -40 14 -40 1z"/> <path d="M1123 2003 c-46 -30 -20 -132 36 -140 80 -11 125 70 70 126 -35 35 -66 39 -106 14z"/> <path d="M4632 1994 c-22 -16 -33 -45 -29 -75 10 -71 144 -73 154 -3 12 86 -56 129 -125 78z"/> </g> </svg> 